<svg width="149" height="66" viewBox="0 0 149 66" fill="none" xmlns="http://www.w3.org/2000/svg">
<g clip-path="url(#clip0_222_5596)">
<path fill-rule="evenodd" clip-rule="evenodd" d="M115.65 35.1446C115.937 34.7508 119.754 32.1836 120.564 31.5155C122.098 30.2487 123.949 28.7662 125.258 27.2507L125.523 26.9644C128.598 23.5973 128.954 23.0515 131.722 19.2339C132.174 18.6106 132.349 18.6456 132.133 17.7104C129.466 17.0847 123.683 18.8494 121.105 19.8843L118.817 20.9009C118.548 21.042 118.392 21.1728 118.033 21.3559C111.797 24.5291 106.808 30.1376 103.974 36.5259C103.141 38.4017 103.761 37.7883 98.9895 38.4239C95.5736 38.8784 89.8454 39.1572 86.257 39.1572C84.6017 39.1572 83.4578 39.019 81.8618 39.019C82.4002 38.6751 83.6175 38.5122 84.2255 38.3563C91.0613 36.6034 97.2823 33.0606 102.708 28.6098C105.86 26.0234 108.705 22.9262 111.031 19.5605C111.463 18.9353 111.303 19.1583 111.942 18.8173L111.942 17.9873L111.501 17.6019C110.261 17.5723 109.051 17.4415 107.939 17.3156C105.497 17.0398 102.727 17.3319 100.291 17.5964C98.0994 17.8338 95.9023 18.2592 93.761 18.9052C90.8771 19.7757 87.784 20.7859 85.216 22.335C81.7384 24.4328 81.5669 24.4526 78.0927 27.0582C76.9885 27.8863 74.9349 29.7917 73.9282 30.8882C72.5071 32.4358 69.1847 36.1686 68.8139 37.7735C67.5769 37.4833 66.1616 37.2844 64.8488 37.0638C63.556 36.8462 62.3411 36.4998 61.0194 36.217C54.8449 34.8944 46.4268 32.1461 40.608 29.3831C40.4091 29.2888 40.3983 29.2873 40.2421 29.198L40.0696 29.0949C39.8178 28.9315 39.9717 29.0396 39.833 28.9182C40.8295 28.9182 42.1938 29.1087 43.1368 29.1876C46.1495 29.4388 51.043 29.0929 53.8186 28.7548C61.0664 27.872 67.1277 25.6063 73.3928 22.4613C76.6039 20.8491 79.6005 18.8183 82.3688 16.5601C84.7526 14.6157 85.4208 14.6888 81.1936 13.265C71.2535 9.91716 59.8877 9.69607 50.0539 12.5095C49.4131 12.6926 49.0345 12.8525 48.3785 13.0351C47.8436 13.1841 47.2092 13.3884 46.6218 13.6174C45.4431 14.0773 44.4933 14.4178 43.367 14.9044C38.7773 16.8858 33.9221 19.7116 30.1873 23.0737C29.8973 23.3348 29.8537 23.4429 29.5328 23.6595C28.8617 23.3017 28.243 22.9104 27.5292 22.4954L26.8012 21.9836C26.2687 21.4408 26.1566 21.5779 25.5178 21.2009L21.5664 18.54C20.9403 18.0638 20.2912 17.6127 19.6441 17.1552C17.7242 15.7967 15.9509 14.2525 14.0893 12.7888C11.759 10.9555 9.29929 8.60347 7.1786 6.46763C6.59564 5.88037 6.11311 5.39477 5.53016 4.80751L1.55135 0.514105C1.13495 0.0734139 1.21087 -0.000610299 0.413839 -0.000610334L0.00185422 0.552597C0.178701 1.31751 2.01429 3.21303 2.71482 3.90787C3.15571 4.34511 3.29042 4.57113 3.67694 5.01379C4.5014 5.95735 6.81951 8.34784 7.75127 9.07279L16.502 16.5848C18.7736 18.4107 21.148 20.0096 23.571 21.6396C26.8654 23.8549 24.7188 22.1637 27.5895 29.9057L32.1336 39.5797C33.6405 42.1128 35.9718 45.7503 38.0131 47.9079C38.4134 48.3308 38.5598 48.6052 38.9738 49.0153C39.4063 49.4436 39.5381 49.7101 39.9335 50.1242C44.5996 55.0073 49.9936 59.3723 56.0407 62.4013C57.8763 63.3207 59.7991 64.2875 61.69 65.0119C62.6796 65.3909 63.7891 65.9989 64.8311 65.9989C65.4596 65.0539 65.0134 64.5446 64.6763 63.526C63.2405 59.1852 61.3025 55.1297 59.1049 51.1511C57.6353 48.4897 55.8756 46.0543 54.0787 43.6229L52.1001 41.1889C51.888 40.9348 51.9027 40.8998 51.6788 40.6451L46.3925 35.1782C45.7929 34.5687 45.1448 34.0402 44.4835 33.5037C43.9671 33.0843 42.9403 32.3643 42.5808 31.8229C43.8251 32.115 45.2443 32.8711 46.4254 33.3463L52.3602 35.3928C54.7856 36.0763 57.1807 36.896 59.7212 37.3866C60.7784 37.5909 60.6804 37.9575 61.5813 39.6635C64.5509 45.2894 70.3442 51.6273 75.8265 54.9234L79.2057 56.9151C81.0525 57.8597 82.8563 58.7154 84.832 59.4112L88.9465 60.6623C91.2915 61.3374 95.4575 61.9868 98.3453 61.9868C99.0424 60.9376 98.5599 60.7165 97.054 58.4445C96.6572 57.8459 96.3681 57.3672 95.9527 56.7868C95.5148 56.1754 95.1508 55.7539 94.6972 55.1465C94.2666 54.5696 93.8903 54.1812 93.4597 53.626C89.4956 48.5154 82.3732 43.2675 76.5084 40.6772C76.3722 40.617 76.2125 40.543 76.0445 40.4531L75.5458 40.1255L79.4119 40.3821C81.9637 40.6668 90.036 40.5691 93.1276 40.4028C94.4561 40.3313 95.6902 40.1255 97.1103 40.1255C97.2872 40.7912 99.499 42.738 100.098 43.3426C101.108 44.3611 102.303 45.3274 103.447 46.195C104.639 47.0985 105.864 47.9237 107.145 48.6965C113.214 52.3602 120.36 54.5607 127.471 54.6485C128.221 54.6574 128.292 54.7902 128.977 54.8025L131.998 54.654C132.867 53.6438 132.16 53.3245 131.586 52.5783C131.355 52.2788 131.258 52.2062 131.004 51.919C128.564 49.1584 126.13 47.0211 123.169 44.8679C122.856 44.64 122.664 44.5556 122.326 44.3335C120.291 42.9951 118.238 41.8769 115.87 40.8746C114.696 40.3771 113.467 39.9345 112.236 39.5545C111.091 39.2007 109.612 38.9939 108.517 38.5961C108.209 38.4841 108.388 38.5631 108.235 38.4653C111.164 37.7779 114.193 37.1369 117.083 36.3083L125.522 33.6701C125.722 33.6859 127.395 34.319 127.877 34.4532C130.573 35.2043 135.447 36.1662 139.24 35.6608C141.028 35.4225 142.922 35.157 144.634 34.7301C145.535 34.5051 146.177 34.278 147.055 33.9859C149.24 33.2585 149.776 32.7976 147.685 31.3797C141.048 26.8791 132.71 26.9995 126.091 31.4089C125.334 31.9132 125.253 32.1881 124.291 32.501C122.861 32.9663 121.591 33.5057 120.097 33.9499C118.935 34.2953 116.694 35.1219 115.653 35.1451" fill="#9B9691" fill-opacity="0.35"/>
</g>
<defs>
<clipPath id="clip0_222_5596">
<rect width="66" height="149" fill="white" transform="translate(149 6.513e-06) rotate(90)"/>
</clipPath>
</defs>
</svg>
